<svg width="16" height="16" viewBox="0 0 16 16" fill="none" xmlns="http://www.w3.org/2000/svg">
<path d="M15.9418 0.45079C15.8681 0.273128 15.7269 0.131947 15.5492 0.0581664C15.4618 0.0209101 15.3679 0.00114878 15.2729 0H0.731297C0.538463 0 0.353527 0.0766031 0.217173 0.212957C0.080819 0.349311 0.00421586 0.534247 0.00421586 0.727081C0.00421586 0.919915 0.080819 1.10485 0.217173 1.2412C0.353527 1.37756 0.538463 1.45416 0.731297 1.45416H13.5207L0.215069 14.7525C0.146921 14.8201 0.0928307 14.9005 0.0559177 14.9891C0.0190048 15.0777 0 15.1727 0 15.2687C0 15.3647 0.0190048 15.4597 0.0559177 15.5483C0.0928307 15.6369 0.146921 15.7173 0.215069 15.7849C0.282661 15.8531 0.363077 15.9072 0.451678 15.9441C0.54028 15.981 0.635314 16 0.731297 16C0.82728 16 0.922314 15.981 1.01092 15.9441C1.09952 15.9072 1.17993 15.8531 1.24752 15.7849L14.5458 2.47935V15.2687C14.5458 15.4615 14.6224 15.6465 14.7588 15.7828C14.8951 15.9192 15.0801 15.9958 15.2729 15.9958C15.4658 15.9958 15.6507 15.9192 15.787 15.7828C15.9234 15.6465 16 15.4615 16 15.2687V0.727081C15.9989 0.632068 15.9791 0.538202 15.9418 0.45079Z" fill="#F8F3F7"/>
</svg>
